<?xml version="1.0" encoding="utf-8"?>
<!-- Generator: Adobe Illustrator 24.0.1, SVG Export Plug-In . SVG Version: 6.00 Build 0)  -->
<svg version="1.1" id="Layer_2" xmlns="http://www.w3.org/2000/svg" xmlns:xlink="http://www.w3.org/1999/xlink" x="0px" y="0px"
	 viewBox="0 0 520.7 441.2" style="enable-background:new 0 0 520.7 441.2;" xml:space="preserve">
<style type="text/css">
	.st0{fill:none;stroke:#0C1620;stroke-width:4;stroke-miterlimit:10;}
</style>
<g>
	<polyline class="st0" points="422,183.1 422,72.7 260.4,72.7 98.7,72.7 98.7,183.1 	"/>
	<line class="st0" x1="50.5" y1="415.8" x2="210.4" y2="293.9"/>
	<polyline class="st0" points="422,137.8 470.3,174.5 470.3,415.8 260.4,415.8 50.5,415.8 50.5,174.5 98.7,137.8 	"/>
	<path class="st0" d="M184.3,72.7l51-38.8c14.8-11.3,35.3-11.3,50.2,0l51,38.8"/>
	<path class="st0" d="M184.3,72.7"/>
	<path class="st0" d="M98.7,137.8"/>
	<line class="st0" x1="470.3" y1="415.8" x2="310.3" y2="293.9"/>
	<path class="st0" d="M470.3,174.5L282.7,314.6c-13.2,9.9-31.3,9.9-44.6,0L50.5,174.5"/>
	<line class="st0" x1="215.7" y1="120.2" x2="382.3" y2="120.2"/>
	<line class="st0" x1="215.7" y1="157.7" x2="382.3" y2="157.7"/>
	<line class="st0" x1="138.5" y1="195.2" x2="382.3" y2="195.2"/>
	<rect x="138.5" y="120.2" class="st0" width="37.5" height="37.5"/>
	<line class="st0" x1="177.1" y1="232.6" x2="343.6" y2="232.6"/>
</g>
</svg>
