<?xml version="1.0" encoding="utf-8"?>
<!-- Generator: Adobe Illustrator 24.0.1, SVG Export Plug-In . SVG Version: 6.00 Build 0)  -->
<svg version="1.1" id="Layer_3" xmlns="http://www.w3.org/2000/svg" xmlns:xlink="http://www.w3.org/1999/xlink" x="0px" y="0px"
	 viewBox="0 0 568.6 402.1" style="enable-background:new 0 0 568.6 402.1;" xml:space="preserve">
<style type="text/css">
	.st0{fill:none;stroke:#0C1620;stroke-width:12;stroke-miterlimit:10;}
</style>
<g>
	<g>
		<path class="st0" d="M130.5,61.6c-5.9-11.3-14-19.4-14-19.4c-2-2.1-4.4-3.5-7.4-3.6c-1.9-0.1-3.6,0.3-4.9,1.3c0,0,0,0,0,0
			c-1.1,0-1.9,2.2-2.3,3.6c-15.6,48.3,9.2,113,9.2,113c4.3,11.2,11.2,27.1,21.7,45.2c-3.5,6.1-7.9,15.1-10.9,26.5
			c-2.2,8.1-9.4,35.5,1.1,42.3c1.9,1.2,6.5,3.1,16.5-1.2c-0.7,2.3-1.4,4.9-1.9,7.8c-0.2,1-0.9,4.7-1.2,9.4c-1,15-1.6,24.3,3.9,32.4
			c1.2,1.7,4.8,6.9,11.8,9.4c6,2.1,11.2,1.1,13.5,0.5c4.2,7,12.6,18.9,27.3,28.6"/>
		<path class="st0" d="M458.8,157.9c7.7,10,15.2,21.9,20.8,33.2c6.3,12.8,10.9,26.4,14.9,40.1c3,10.4,3,21.1,0.5,31.6
			c-1.6,6.8-4.9,12.5-10.7,16.5c-1.4,1-4.9,3.1-9.7,3.1c-5.7,0.1-9.7-2.8-11-3.8c0.3,4.2,0.3,9.6-0.5,15.8c-1,7.7-3,13.3-3.5,14.9
			c-3.1,8.7-7.9,16.4-13.8,23.4c-4.8,5.7-10.1,10.7-16.4,14.5c-15.9,9.8-33.1,12.4-51.3,9.4c-0.6-0.1-1.3,0-1.8,0.3
			c-5,2.3-9.9,4.8-15,7c-1.2,0.5-2.5,1-3.9,1.5"/>
	</g>
	<path class="st0" d="M333.1,70.7c7-0.1,21,0.8,36.1,8.8c12.4,6.6,20.2,15.2,24.4,20.5"/>
	<path class="st0" d="M172.1,174.9l90.6,39.9c0,1.1,0.6,23-18.4,33.5c-14.9,8.3-31.3,3.7-36,2.2c-31.1-10.3-36.1-49.3-36.7-54.1
		C170.5,187.6,171.2,180.2,172.1,174.9z"/>
	<path class="st0" d="M393.8,174.9l-90.6,39.9c0,1.1-0.6,23,18.4,33.5c14.9,8.3,31.3,3.7,36,2.2c31.1-10.3,36.1-49.3,36.7-54.1
		C395.4,187.6,394.7,180.2,393.8,174.9z"/>
	<path class="st0" d="M347.3,286.1L332,306.4l-26.4-10l-7.2,14l-14.1-12.7l-13.5,13.4l-7.7-14.7l-22.7,10l-18.5-20
		c-24.1-6-40.7-12.8-40.7-12.8s15.9,35.5,52.7,54.8l22.4-5.5l8.3,15.7c0,0,2.3,0.6,2.3,0.6l17.4-13.8l17.4,13.7c0,0,2.3-0.6,2.3-0.6
		l8.3-15.7l22.1,5.5c36.1-19.4,51-54.8,51-54.8S370.2,280.2,347.3,286.1z"/>
	<path class="st0" d="M328.2,120.5c-0.8-3.1-2.6-8.2-6.8-13.3c-5.8-7.1-12.9-9.9-16.3-11.2c-12.8-4.9-24.9-3.5-32.2-0.6
		c-12.9,5.2-12.9,5.2-28.9,12.1c-13.4,5.8-26.7,11.6-43.7,14.1c-11.4,1.7-23,3.3-36.9-1.2c-17.7-5.8-28-14.9-36.6-29.4
		c-3.8-6.5-9.5-19.6-11.9-28c-0.2-0.6,0.3-1.2,0.9-1.2l14.6-0.1c3.7-0.5,9.5-1.4,16.4-3.1c32.3-7.8,40.6-20.3,64-28.6
		c7.2-2.5,36.5-11.9,68.2-1c20.4,7,33.8,19.3,40.2,25.9c9.3,9.6,20,22.3,23.5,33c5.2,16.1,3.3,29.7,3.3,29.7
		c5.3-0.2,12.9-0.8,21.5-3.4c18.1-5.3,29.6-15.5,37.7-22.7c13.9-12.5,39.7-40.6,45.4-47.8c0.5-0.6,2.3-2.9,5.4-4.2
		c0.9-0.4,3.6-1.4,6.1-0.4c0.5,0.2,2.9,1.2,4.5,5.3c9.8,24.7,7.4,48.1,7.4,48.1c-1.7,16-4.1,37.4-15.5,65.5
		c-7,17.3-15.4,31.9-23.4,43.8c3.5,6.1,7.9,15.1,10.9,26.5c2.2,8.1,9.4,35.5-1.1,42.3c-1.9,1.2-6.5,3.1-16.5-1.2
		c0.7,2.3,1.4,4.9,1.9,7.8c0.2,1,0.9,4.7,1.2,9.4c1,15,1.6,24.3-3.9,32.4c-1.2,1.7-4.8,6.9-11.8,9.4c-6,2.1-11.2,1.1-13.5,0.5
		c-4.3,6.7-11.9,16.6-24.1,25.3c-9.1,6.5-17.8,10.3-24.3,12.5c-15.9,5.5-40,11.7-69.7,11.8c-34.9,0.1-62.6-8.4-79.4-15.1
		c-4-1.7-7.3-3.5-12-6c-0.8-0.4-1.5-0.8-2.5-0.6c-5.5,1-11.1,1.4-16.7,1.1c-8.8-0.4-17.3-2.2-25.4-5.7
		c-10.9-4.7-19.7-12.1-27.1-21.3c-9.2-11.4-12.7-22.4-13.7-25.9c-3.2-11-3.1-20.4-2.6-26.3c-1.5,1.1-5.5,3.9-11.2,3.8
		c-3.8-0.1-6.5-1.4-7.8-2.1c-3.1-1.6-5.6-3.9-7.7-6.7c-3.4-4.7-5-10-5.8-15.6c-0.3-2.2-0.5-4.4-0.7-6.6c0-2.6,0-5.2,0-7.8
		c0.1-0.5,0.2-0.9,0.2-1.4c0.4-2.5,0.6-5,1.1-7.5c3.1-12.9,7.7-25.4,12.9-37.5c7.7-18,18.1-31.8,25.1-40.8"/>
</g>
</svg>
