<?xml version="1.0" encoding="utf-8"?>
<!-- Generator: Adobe Illustrator 24.0.1, SVG Export Plug-In . SVG Version: 6.00 Build 0)  -->
<svg version="1.1" id="Capa_1" xmlns="http://www.w3.org/2000/svg" xmlns:xlink="http://www.w3.org/1999/xlink" x="0px" y="0px"
	 viewBox="0 0 334.1 92" style="enable-background:new 0 0 334.1 92;" xml:space="preserve">
<g>
	<path d="M203.1,18.6c0.1-0.2,0.1-0.4,0.2-0.7c0,0.1-0.1,0.1-0.1,0.2C203.2,18.2,203.1,18.4,203.1,18.6z"/>
	<path d="M289.3,34.4l-22.6,0.3l-22.6-0.2l-21.2-0.1l0.7-0.3l2-0.9c1.3-0.6,2.6-1.3,4-1.9c2.6-1.3,5.2-2.6,8-3.7
		c2.7-1,5.4-2.4,8.2-3.1c1.4-0.4,2.7-1.3,3.6-2.4c0.5-0.6,0.9-1.1,1.3-1.8c0.2-0.3,0.3-0.7,0.2-1.1c-0.1-0.4-0.3-0.7-0.6-0.9
		c-0.7-0.4-1.4-0.4-2.1-0.5c-0.7-0.1-1.5-0.1-2.2-0.1c-1.5,0-2.9,0-4.4,0l-8.8,0.2l-8.8,0.2c-2.9,0-5.8,0.3-8.7,0.3
		c0-0.3,0.2-0.6,0.4-0.8c0.2-0.3,0.5-0.5,0.7-0.7c0.5-0.5,0.9-1,1.3-1.6c0.8-1.1,1.4-2.3,2-3.5l0.5-0.9c0.2-0.3,0.4-0.6,0.4-0.9
		c0-0.3-0.1-0.7-0.5-0.9c-0.4-0.2-0.7,0.1-1,0.2c-0.6,0.3-1.2,0.6-1.7,1c-0.6,0.4-0.9,1-1.3,1.5c-0.8,1.1-1.7,2-2.6,3.1
		c-0.4,0.5-0.8,1-1.2,1.6c-0.4,0.5-0.6,1.2-1.1,1.7c-0.5,0.5-1.2,0.6-1.8,0.6l-2,0l-4,0c0,0,0,0,0,0c0,0,0,0,0,0
		c-0.1-0.2,0.1-0.5,0.3-0.8c0,0,0,0,0,0.1c0.1-0.1,0.2-0.3,0.2-0.4c0.2-0.4,0.4-0.7,0.6-1.1c0.4-0.7,0.9-1.4,1.4-2.1
		c0.2-0.4,0-0.9-0.4-1.1c-0.4-0.2-0.8,0.1-1.2,0.3c-0.7,0.4-1.5,0.8-2.1,1.3c-0.2,0.1-0.3,0.3-0.5,0.4c0,0-0.1,0.1-0.1,0.1
		c-0.4,0.3-0.7,0.7-1,1.1c0,0,0,0,0,0c0,0.1-0.1,0.1-0.2,0.2c-0.2,0.3-0.5,0.7-0.7,1.1c-0.2,0.4-0.4,0.7-0.7,1c0,0-0.1,0.1-0.1,0.1
		c-0.1,0-0.1,0.1-0.2,0.1c-0.1,0-0.1,0.1-0.2,0.1c-0.1,0-0.2,0.1-0.3,0.1c-0.1,0-0.2,0-0.3,0l-1.2,0.1l-2.5,0.2
		c0.1-0.1,0.1-0.2,0.2-0.3c0.2-0.4,0.5-0.7,0.7-1.1c0.1-0.2,0.2-0.4,0.3-0.6c0.2-0.4,0.5-0.9,0.7-1.3c0.7-1.3,1.3-2.7,2-4.1
		c0.1-0.3,0.3-0.6,0.5-0.9c0,0,0,0,0,0c0-0.1,0-0.1,0-0.2c0,0,0,0,0,0c0-0.1,0-0.1-0.1-0.2c0,0,0,0-0.1-0.1c0,0,0,0,0,0c0,0,0,0,0,0
		c-0.1-0.1-0.1-0.1-0.2-0.1c0,0,0,0,0,0c0,0,0,0-0.1,0c-0.1,0-0.1,0-0.2,0c0,0,0,0,0,0c-0.1,0-0.2,0-0.3,0c0,0,0,0,0,0c0,0,0,0,0,0
		c-0.1,0-0.2,0.1-0.3,0.2c0,0.1-0.1,0.1-0.1,0.2c-0.2,0.2-0.5,0.5-0.7,0.7c-0.3,0.2-0.6,0.5-0.9,0.7c-0.2,0.2-0.4,0.4-0.6,0.6
		c0,0,0,0,0,0c-0.1,0.1-0.3,0.3-0.4,0.5c0,0.1-0.1,0.1-0.1,0.2c-0.1,0.1-0.1,0.2-0.2,0.3c0,0.1-0.1,0.1-0.1,0.2
		c-0.1,0.2-0.1,0.3-0.2,0.5c-0.1-0.1-0.2-0.1-0.3-0.1c0,0-0.1,0-0.1,0c0,0,0,0-0.1,0c-0.2,0-0.2,0.3-0.3,0.4
		c-0.2,0.3-0.3,0.6-0.6,0.9c-0.4,0.6-0.9,1.1-1.4,1.6c-0.1,0.1-0.2,0.2-0.3,0.3c-0.1,0.1-0.1,0.1-0.2,0.2c-0.3,0.4-0.5,0.7-0.7,1.1
		c0,0.1-0.1,0.1-0.1,0.2c-0.1,0.1-0.2,0.2-0.3,0.3c0,0-0.1,0-0.1,0.1c-0.3,0.2-0.6,0.3-0.9,0.3c0,0,0,0,0,0c-0.2,0-0.3,0-0.5,0
		c-1.4-0.1-2.8,0-4.2,0.1l-2.1,0.2l-1.1,0.1l-0.5,0c-0.1,0-0.2,0-0.2,0c-0.1-0.1-0.1-0.1-0.2-0.2c0.2-0.7,0.8-1,1.2-1.5l0.8-0.8
		c0.1-0.2,0.3-0.3,0.4-0.5l0.1-0.1l1.4-1.4c0.1-0.1,0.2-0.3,0.3-0.4c0-0.2,0-0.4-0.1-0.5c-0.2-0.3-0.6-0.4-0.9-0.3
		c-0.1,0.1-0.1,0.1-0.2,0.2c0,0,0,0,0,0c0,0-0.1,0.1-0.1,0.1c-0.9,0.7-1.8,1.5-2.6,2.3c-0.9,0.9-1.8,1.9-2.9,2.7
		c-1.1,0.8-2.5,0.9-3.8,1.1c-0.7,0.1-1.3,0.1-2,0.2c-0.2,0-0.3,0-0.5-0.1c-0.1-0.1-0.2-0.2-0.2-0.4c0-0.3,0-0.7,0.1-1
		c0.1-0.6,0.5-1.2,1-1.6c0.5-0.4,1-0.9,1.4-1.5c0.4-0.5,0.7-1.1,1-1.7c0.1-0.3,0.4-0.6,0.4-0.9c0.1-0.4-0.2-0.7-0.5-0.8
		c-0.4-0.2-0.7,0.1-0.9,0.4c-0.2,0.3-0.4,0.5-0.6,0.8c-0.4,0.5-0.8,1.1-1.2,1.6c-0.8,1-1.8,2-2.7,3c-0.9,0.9-1.7,2.1-3,2.5
		c-0.6,0.2-1.3,0.2-1.9,0.3l-2,0.1c-5.3,0.4-10.6,0.9-15.8,1.4c-5.3,0.5-10.6,1-15.8,1.5c-1.3,0.1-2.6,0.2-4,0.4l-3.9,0.5
		c-2.6,0.3-5.3,0.4-7.9,0.6c-5.3,0.7-10.5,1.1-15.8,1.9l-3.9,0.5c-1.3,0.2-2.6,0.4-3.9,0.2c-0.6-0.1-1.2-0.4-1.7-0.8
		c-0.2-0.2-0.4-0.5-0.6-0.8L88,26.9c0-0.1-0.1-0.2-0.2-0.2c-0.1-0.1-0.2-0.1-0.2-0.2c2,0,4,0,6-0.1c1.4-0.1,2.8,0,4.3,0.1
		c1.4,0.1,2.9,0,4.3,0c0.7,0,1.4,0,2.1,0c0.7,0,1.4,0.1,2.1,0.2c1.4,0.1,2.9,0.1,4.2-0.5c-0.2,0.1-0.4,0.2-0.6,0.2
		c0.2-0.1,0.4-0.1,0.6-0.2c-5.8-0.7-11.6-1-17.4-1c-2.9-0.1-5.8,0-8.7,0l-4.3,0l-2.2,0l-0.5,0c-0.2,0-0.4,0-0.6,0.1
		c0,0-0.1,0.1-0.1,0.1c-3.3,0-6.7,0-10,0.2c-2.9,0.1-5.8,0.3-8.7,0.5l-4.3,0.3l-0.2,0c-3,0.1-5.9,0.3-8.9,0.5
		c-2.9,0.2-5.8,0.5-8.7,0.8L31.5,28l-2.2,0.2l-0.5,0.1c-0.2,0-0.4,0.1-0.6,0.2c-0.1,0.1-0.2,0.1-0.3,0.2c-0.1,0.1-0.2,0.2-0.2,0.4
		c0,0,0,0.1,0,0.1l-0.1,0.2l-0.4,0.5l0.6-0.1c2.8-0.3,5.7-0.6,8.5-0.8c2.8-0.3,5.7-0.4,8.5-0.8c1.4-0.2,2.8-0.3,4.3-0.3
		c0.1,0,0.1,0,0.2,0l-0.1,0.1l0.6,0c2.9-0.2,5.7-0.4,8.6-0.5c2.8-0.2,5.7-0.2,8.6-0.5c1.4-0.1,2.8-0.2,4.3-0.1c0.9,0,1.7,0,2.6-0.1
		c0,0,0.1,0,0.1,0.1c0.4,0.1,0.8,0.2,1.2,0.2c0.4,0,0.8-0.1,1.2-0.3c2.8,0,5.6-0.1,8.4,0c0.6,0,1.1,0,1.7,0c0,0-0.1,0.1-0.1,0.1
		c-0.2,0.3,0,0.8,0.2,1c0.4,0.5,1,0.8,1.2,1.4c-10.7,1.3-21.5,2.9-32.3,4.3c-2.7,0.3-5.4,1-8,1.7c-1.3,0.4-2.6,0.7-3.9,1.2
		c-0.6,0.2-1.3,0.5-1.9,0.7c-0.3,0.1-0.6,0.2-1,0.3c-0.3,0.1-0.7,0.2-0.9,0.5c-0.3,0.3-0.4,0.7-0.2,1.1c0.2,0.4,0.5,0.6,0.8,0.7
		c0.6,0.3,1.3,0.5,2,0.6c1.4,0.2,2.8-0.2,4,0.3c0.2,0.1,0.3,0.1,0.4,0.2c0.1,0.1,0.3,0.2,0.5,0.2c0.5,0,0.6-0.5,0.9-0.5
		c0.1-0.1,0.3,0,0.4,0c0.1,0.1,0.3,0.2,0.5,0.2c0.3,0.1,0.7,0.1,1.1,0.1c0.7-0.1,1.3-0.1,2-0.1c0.7,0,1.4-0.1,2-0.1l4.1-0.3
		c1.4-0.1,2.7-0.1,4.1-0.2c2.7-0.1,5.4-0.3,8.2-0.5l8.2-0.6c1.4-0.1,2.7-0.2,4.1-0.2c1.4,0,2.7-0.1,4.1-0.2l8.1-0.7l4.1-0.4
		c0.3,0,0.6,0.1,0.8,0.3c0.2,0.2,0.5,0.5,0.7,0.7c0.5,0.5,1,0.9,1.5,1.4l3.2,2.5c1.1,0.8,2,1.8,3,2.8l2.8,2.9c0.5,0.5,1,1,1.4,1.5
		c0.2,0.3,0.4,0.6,0.7,0.8c0.2,0.1,0.4,0.2,0.6,0.2c-0.8,0.4-1.7,0.5-2.5,0.5c-1,0-2,0.1-3.1,0.2c-2,0.2-4.1,0.5-6.1,0.7
		c-2,0.3-4.1,0.4-6.1,0.5c-1,0.1-2,0.3-3.1,0.4c-1,0.1-2,0.2-3.1,0.3c-2,0.3-4.1,0.6-6.1,0.7c-2,0.2-4.1,0.4-6.1,0.6
		c-4.1,0.5-8.1,1-12.2,1.6l-12.2,1.7c-4.1,0.5-8.2,0.8-12.2,1.7l-6,1.2l-6,1.2c-2,0.4-4,0.9-6,1.4c-2,0.5-4,1.1-5.8,2.2l-0.3,0.2
		l0.4,0.1c0.5,0.2,1.1,0.4,1.7,0.2l1.5-0.5c1-0.3,2-0.6,3.1-0.8c2.1-0.5,4.2-0.9,6.2-1.4c4.1-1.1,8.3-1.8,12.5-2.6
		c2.1-0.5,4.2-0.8,6.3-1c2.1-0.2,4.2-0.4,6.4-0.8c1.1-0.2,2.1-0.5,3.1-0.8c0.1-0.1,0.4,0,0.7,0.1c0.3,0,0.6,0,0.8,0
		c0.5,0,1.1-0.1,1.6-0.2c1.1-0.2,2.1-0.4,3.1-0.5c1.1-0.1,2.1-0.2,3.2-0.4l3.1-0.5c1-0.1,2.1-0.2,3.2-0.4l3.2-0.4l1.6-0.2
		c0.6,0,1.1-0.4,1.5-0.5c0.2,0,0.4,0.1,0.7,0.1c0.3,0,0.5,0.1,0.8,0.1c0.6,0,1.1,0,1.6-0.1c1.1-0.2,2.1-0.4,3.1-0.6
		c2.1-0.4,4.2-0.5,6.3-0.6c2.1-0.2,4.2-0.5,6.3-0.6c1.1,0,2.1-0.1,3.2-0.2c0.5-0.1,1.1-0.2,1.6-0.3c0.5-0.1,1-0.2,1.6-0.2
		c1-0.1,2.1-0.3,3.2-0.5c1-0.2,2.1,0,3.2-0.1c0.6,0,1.1-0.2,1.6-0.3c0.2,0,0.5-0.1,0.7,0c0.2,0.1,0.4,0.2,0.5,0.4
		c0.5,0.9,1,1.9,1.5,2.8c0.5,0.9,1.1,1.9,1.7,2.7c0.6,0.9,1.1,1.8,1.5,2.8c0.8,1.9,1.3,4.1,1.5,6.1c0,2.1-0.9,4.1-2.2,5.7
		c-1.3,1.6-3.1,2.9-4.9,3.9c-2,0.9-4.1,1.7-6.3,2.4c-13.6,2.9-18.2,3.3-38.8,2.9l-1.1,0C46,81,22.7,74.9,22.4,74.8l0,0
		c-0.9-0.3-1.8-0.5-2.8-0.6c-1.2-0.2-2.3-0.8-3.4-1.4l-1.6-0.9c-0.5-0.3-1-0.7-1-1.2c0-0.3,0.1-0.5,0.3-0.7c0.2-0.2,0.4-0.5,0.6-0.8
		c0.3-0.5,0.6-1.1,1.1-1.4c0.2-0.1,0.5-0.2,0.8-0.2l0.1,0c0,0,0.1,0,0.1,0c0.1,0,0.1,0,0.2-0.1c0.1-0.1,0.2-0.1,0.2-0.2
		c0.1-0.1,0.1-0.1,0.2-0.2c0-0.1,0.1-0.1,0.2-0.3c0.1-0.2,0.1-0.4,0-0.6c0-0.1-0.2-0.3-0.3-0.3c-0.1-0.1-0.2-0.1-0.3-0.1
		c-0.4,0-0.7,0.1-1,0.2c-1.2,0.5-2.2,1.5-3,2.5c-0.4,0.5-0.7,1.2-0.7,1.9c0,0.7,0.3,1.4,0.7,1.9c1.9,1.8,4.4,2.8,6.9,3.3l2.4,0.5
		l0,0c0.2,0.1,23.7,6.3,45.7,6.7l1.1,0c5.7,0.1,10,0.2,13.6,0.2c9,0,13.7-0.6,22.5-2.4c0.5,0,1-0.1,1.4-0.2c0.2,0,0.4-0.1,0.5-0.2
		c0.1,0,0.2,0,0.3-0.1l0,0c0.7-0.2,1.5-0.5,2.2-0.8c1-0.4,2-0.7,3-1.1c1-0.4,2-0.9,2.9-1.4c1.8-1.1,3.6-2.3,4.9-4.1
		c0.6-0.9,1.2-1.8,1.6-2.8c0.2-0.5,0.4-1,0.4-1.5c0.1-0.5,0.1-1.1,0.1-1.6c0-2.1-0.3-4.3-1.3-6.2c-0.9-1.9-1.8-3.9-3-5.7
		c-0.6-0.9-1.2-1.8-1.9-2.5c-0.2-0.2-0.1-0.5-0.1-0.8c0,0,0-0.1,0-0.1c0,0,0-0.1,0-0.1c0-0.1,0-0.1,0-0.2c0-0.1-0.1-0.2-0.1-0.3
		c0,0,0,0,0-0.1c0,0,0,0-0.1-0.1c-0.1-0.1-0.1-0.1-0.2-0.2c0,0-0.1,0-0.1-0.1c-0.1,0-0.1-0.1-0.2-0.1c-0.1,0-0.1,0-0.2-0.1
		c-0.1,0-0.1,0-0.2-0.1c0,0-0.1,0-0.1,0c-0.1,0-0.2,0-0.3-0.1l-0.1-0.1l0.1,0c-0.5-1.6-2-2.5-2.8-3.7c-1-1.2-2.1-2.3-3.2-3.4
		c-1.1-1.1-2.3-2.1-3.5-3l-1.8-1.5c-0.3-0.2-0.6-0.5-0.9-0.7c-0.3-0.2-0.5-0.4-0.5-0.6l11.6-0.5c3.9-0.2,7.9-0.3,11.8-0.4l11.8-0.3
		c3.7-0.1,7.5-0.3,11.2-0.1c-1.1,0.7-2,1.7-2.9,2.4c0-0.1,0-0.1,0-0.2c0-0.1,0.2-0.3,0.3-0.5c0.1-0.2,0.2-0.4,0.1-0.7
		c0-0.3-0.2-0.5-0.4-0.6c-0.2-0.2-0.5-0.2-0.7-0.2c-0.2,0.1-0.4,0.2-0.6,0.3c-0.3,0.2-0.7,0.4-1.1,0.6c-0.7,0.5-1.2,1.1-1.7,1.7
		c-0.5,0.7-0.8,1.4-1.4,1.8c-0.3,0.2-0.6,0.4-0.9,0.3c-0.2-0.1-0.3-0.5-0.4-0.8c0-0.4,0.1-0.7,0.2-1.1c0-0.2,0.1-0.4,0.1-0.7
		c0-0.3-0.3-0.5-0.5-0.6c-0.2-0.1-0.5-0.1-0.7,0.1c-0.2,0.1-0.4,0.3-0.5,0.5c-0.1,0.2-0.1,0.5-0.1,0.7c0,0.2,0,0.3-0.1,0.5
		c-0.2,0.7-0.5,1.5-1,2c-0.5,0.5-1.2,0.8-1.9,0.9c-0.4,0-0.7-0.1-0.8-0.3c-0.2-0.3-0.1-0.5,0.2-0.8c0.5-0.6,1.1-1.1,1.6-1.7
		c0.3-0.3,0.5-0.5,0.8-0.9c0.1-0.2,0.2-0.5,0.1-0.8c-0.1-0.2-0.2-0.4-0.5-0.6c-0.3-0.1-0.6-0.1-0.8,0.1c-0.2,0.1-0.3,0.3-0.5,0.4
		l-0.9,0.8l-1.7,1.6c-0.6,0.5-1.1,1.1-1.8,1.4c-0.6,0.3-1.3,0.4-1.9,0.2c0.2-0.8,1.1-1.3,1.7-2c0.2-0.2,0.4-0.3,0.5-0.6
		c0.1-0.3-0.1-0.7-0.3-0.9c-0.1-0.1-0.3-0.2-0.4-0.2c-0.2,0-0.4,0-0.5,0.1c-0.3,0.2-0.3,0.4-0.5,0.6c-1.3,1.4-3.1,2.3-4.6,3.6
		c-0.4,0.3-0.8,0.7-1.1,0.9c-0.4,0.3-0.8,0.5-1.3,0.6c-0.4,0.1-0.9,0.3-1.3,0.3c-0.2,0-0.3-0.1-0.4-0.2c-0.1-0.1,0-0.4,0-0.6
		c0.3-0.9,0.7-1.8,1.4-2.4c0.3-0.3,0.7-0.6,1.1-1c0.4-0.4,0.6-0.9,0.6-1.5l0-0.5l-0.4,0.2c-0.7,0.5-1.2,1.2-1.8,1.4
		c-0.8,0.3-1.4,1-1.8,1.6c-0.4,0.7-0.8,1.5-0.9,2.3c0,0.4,0,0.8,0.1,1.3c0.1,0.4,0.4,0.9,1,0.9l2.4-0.4c0.4-0.1,0.8-0.2,1.2-0.4
		c0.4-0.2,0.7-0.5,0.9-0.8c0.5-0.5,1.2-0.9,1.9-1.3c0.3-0.2,0.6-0.4,0.8-0.2c0.2,0.2,0.6,0.5,1,0.6c0.8,0.3,1.7,0.2,2.5-0.1
		c0.4-0.1,0.7-0.3,1.1-0.5c0.2-0.1,0.3-0.2,0.5-0.2c0.1,0,0.2,0,0.3,0.1c0.5,0.5,1.2,1.1,2,1.3c0.9,0.2,1.8-0.2,2.4-0.8
		c0.6-0.5,1.2-0.8,2-0.8c0.4,0,0.7,0.1,1.2,0.1c0.4,0,0.9,0,1.3-0.2c0.8-0.3,1.3-1.2,1.6-1.9c0.3-0.6,0.8-1.1,1.3-1.4l0,0.1
		c0,0.1,0,0.2,0,0.2c0,0.2-0.1,0.4-0.2,0.5c-0.2,0.4-0.7,0.6-0.8,1.3c0,0.2,0,0.3,0.1,0.5c0.1,0.1,0.1,0.3,0.4,0.4
		c0.2,0.1,0.4,0,0.5,0c0.1-0.1,0.2-0.1,0.3-0.2c0.4-0.2,0.8-0.5,1.2-0.9c0.7-0.8,1.2-1.4,2-1.9c0.5-0.4,1.1-0.7,1.7-1.1
		c-0.2,0.5-0.4,1.1-0.7,1.5c-0.2,0.3-0.5,0.5-0.8,0.9c-0.1,0.2-0.3,0.4-0.3,0.7c0,0.3,0.1,0.6,0.3,0.7c0.2,0.2,0.4,0.3,0.7,0.3
		c0.3,0,0.5-0.2,0.7-0.3c0.3-0.3,0.5-0.7,0.8-1c0.5-0.7,1-1.3,1.5-1.8c0.6-0.6,1.2-1.1,1.7-1.7c0.6-0.6,1.1-1.2,1.8-1.6
		c0.3-0.2,0.7-0.3,1-0.3c0.3,0,0.8,0.1,1.2,0.2c0.7,0.1,1.5,0.1,2.2,0.2c0,0.2-0.1,0.4-0.1,0.5c-0.1,0.2-0.3,0.4-0.5,0.6
		c-0.1,0.1-0.2,0.3-0.2,0.5c0,0.2,0,0.4,0.1,0.5c0.2,0.3,0.5,0.5,0.9,0.5c0.4,0,0.6-0.2,0.9-0.4c0.2-0.2,0.4-0.3,0.7-0.5
		c0.4-0.4,0.9-0.7,1.3-1c0.9-0.6,2-0.9,3-1.1c1-0.2,2.1-0.1,3.1,0.1c0,0.5-0.4,1.1-0.4,1.8c0,0.4,0.2,0.8,0.6,1
		c0.4,0.3,0.9,0.2,1.2,0c1.2-0.6,2.4-1.2,3.5-1.8c0.1,0.1,0.1,0.2,0.2,0.4c0,0.3,0.1,0.5,0.2,0.7c0.2,0.5,0.6,1,1.2,1
		c0.6,0,1-0.2,1.5-0.4c0.2-0.1,0.4-0.2,0.6-0.4c0.2-0.2,0.3-0.3,0.5-0.5c0.4-0.3,0.8-0.5,1.2-0.4c0.2,0,0.4,0.1,0.6,0.2
		c0.2,0.2,0.6,0.2,0.8,0.2c0.6-0.1,1-0.5,1.3-0.7c0.4-0.2,0.7-0.3,1.1-0.5c0.1,0.1,0.1,0.2,0.1,0.4c0.1,0.2,0.1,0.4,0.2,0.7
		c0.1,0.2,0.1,0.5,0.4,0.7c0.3,0.2,0.6,0.1,0.8,0.1c0.9-0.1,1.8-0.3,2.7-0.6c0.9-0.3,1.8-0.6,2.5-1.1c0.4-0.2,0.8-0.5,1.1-0.8
		c0.3-0.3,0.6-0.6,0.9-0.5c0.3,0.6,0.5,1.1,0.9,1.6c0.2,0.3,0.6,0.5,0.9,0.5c0.4,0.1,0.7,0,1,0c0.6-0.1,1.3-0.3,1.9-0.4
		c0.3,0,0.4,0.1,0.7,0.4c0.3,0.2,0.6,0.4,1,0.4c0.8-0.1,1.2-0.6,1.8-0.9l1.7-1c1.1-0.7,2.4-0.9,3.5-0.5c0.3,0.1,0.6,0.2,0.8,0.4
		c0.3,0.2,0.6,0.3,0.9,0.4c0.6,0.2,1.3,0.4,1.9,0.4c1.3,0,2.6-0.2,3.9-0.2c2.6-0.3,5.1-0.9,7.6-0.8c5.1,0.2,10.3,0.2,15.4,0.2
		l15.4,0.2l15.4,0.2l15.4-0.1c5.1-0.1,10.3-0.3,15.4-0.5l7.7-0.2c2.6-0.1,5.2-0.3,7.6-1.1l0.8-0.2l-0.8,0
		C304.4,33.9,296.8,34.2,289.3,34.4z M116,52.1C116,52.1,116,52.1,116,52.1C116,52.1,116,52.1,116,52.1z M116.2,52.5
		c0.1,0.1,0.2,0.2,0.2,0.3C116.4,52.7,116.3,52.6,116.2,52.5z M117.1,53.5c0.2,0.3,0.4,0.5,0.6,0.8C117.4,54,117.3,53.8,117.1,53.5z
		 M204.6,33.1c-0.1,0.3-0.1,0.5-0.3,0.6c-0.2,0.1-0.4,0.2-0.7,0.1c-0.2,0-0.4-0.2-0.4-0.3c0-0.1,0.2-0.4,0.4-0.6l1-1.5
		C204.8,32,204.8,32.6,204.6,33.1z M193.7,15.8c0.2-0.2,0.3-0.4,0.4-0.6c0,0,0,0,0,0c0,0,0,0,0,0c0-0.3-0.2-0.5-0.4-0.6
		c0.2-0.1,0.3-0.2,0.5-0.3c0.1,0,0.1-0.1,0.2-0.2c0.1-0.1,0.2-0.1,0.3-0.2c0.2-0.1,0.3-0.3,0.5-0.4c0.1-0.1,0.2-0.2,0.3-0.2
		c0.1-0.1,0.2-0.2,0.3-0.2c0,0.1,0,0.1,0,0.2c0,0.1,0,0.2,0,0.4c0,0.1,0,0.3-0.1,0.4c0,0,0,0.1,0,0.1c0,0.1-0.1,0.3-0.1,0.4
		c0,0,0,0.1,0,0.1c-0.1,0.1-0.1,0.3-0.2,0.4c0,0,0,0,0,0c-0.2,0.4-0.5,0.8-0.8,1.1c-0.1,0.1-0.2,0.3-0.3,0.4c0,0.1-0.1,0.1-0.1,0.2
		c-0.4,0.6-0.6,1.3-1,1.8c-0.1,0.1-0.2,0.3-0.3,0.4c0,0,0,0-0.1,0c-0.1,0.1-0.2,0.2-0.4,0.3c0,0,0,0,0,0c-0.1,0.1-0.3,0.2-0.5,0.2
		c0,0-0.1,0-0.1,0c-0.1,0-0.2,0.1-0.4,0.1c0.1-0.3,0.1-0.5,0.2-0.7c0,0,0,0,0,0c0.3-0.7,0.8-1.3,1.3-1.9
		C193,16.7,193.3,16.2,193.7,15.8z M193.7,14.7C193.7,14.6,193.7,14.6,193.7,14.7C193.7,14.6,193.7,14.6,193.7,14.7z M200.3,19.2
		L200.3,19.2L200.3,19.2L200.3,19.2z M198.5,35.3C198.5,35.3,198.5,35.3,198.5,35.3C198.5,35.3,198.5,35.3,198.5,35.3z M91.7,30.7
		c0.1,0.1,0.2,0.2,0.3,0.3C91.9,31,91.8,30.9,91.7,30.7z M174.4,25.6c-0.3,0.6-0.7,1-1.1,1.5c-0.8,1-1.5,2.1-2.1,3.3
		c-0.3,0.6-0.6,1.2-0.9,1.7c-0.3,0.6-0.5,1.1-1,1.5c-0.2,0.2-0.5,0.2-0.8,0.3c-0.3,0-0.6,0-0.9,0c-0.5,0-1,0-1.4-0.1
		c1.6-1.5,3.1-3.1,4.5-4.7c1.5-1.7,3-3.6,4.4-5.4l0.3,0.2C174.9,24.4,174.7,25,174.4,25.6z M174.7,21.9
		C174.7,21.9,174.7,21.9,174.7,21.9C174.7,21.9,174.7,21.9,174.7,21.9C174.7,21.9,174.7,21.9,174.7,21.9z M174.5,36.5
		c0-0.3,0.1-0.6,0.3-0.8c0.2-0.2,0.4-0.4,0.7-0.5c0.3-0.2,0.5-0.3,0.8-0.2c0.2,0,0.5,0.2,0.6,0.4c0.1,0.2-0.1,0.3-0.3,0.5
		c-0.5,0.4-1,0.8-1.6,1.2l0,0c-0.2,0-0.3-0.1-0.4-0.2C174.5,36.9,174.5,36.7,174.5,36.5z M177.4,32.5c0.5-0.3,0.9-0.7,1.3-1.1
		c0.2-0.2,0.4-0.5,0.3-0.8c-0.1-0.3-0.4-0.6-0.7-0.5c-0.3,0.1-0.5,0.3-0.7,0.5l-0.6,0.6c-0.9,0.8-1.7,1.6-2.5,2.3
		c-0.4,0.3-1,0.4-1.5,0.4c-0.5,0-1-0.1-1.5-0.1c0.3-0.9,0.6-1.8,1.1-2.6c0.2-0.4,0.5-0.8,0.9-1.2c0.3-0.4,0.6-0.8,0.9-1.3
		c1.1-1.7,2.1-3.5,3.1-5.3c0.5-0.9,1.2-1.6,2.1-1.9c0.9-0.3,1.9-0.2,2.9-0.2c2,0,4-0.1,6-0.4c0.1,0.2,0.1,0.3-0.2,0.6
		c-0.2,0.4-0.4,0.6-0.6,1c-0.4,0.7-0.7,1.3-1,2c-0.6,1.3-1.1,2.7-1.6,4.1c-0.3,0.7-0.5,1.4-0.8,2c-0.3,0.7-0.7,1.3-1.1,1.9
		c-0.4,0.6-0.9,1.1-1.6,1.3c-0.6,0.2-1.3,0.2-2,0.1c0-0.3,0.1-0.6,0.3-0.8c0.3-0.2,0.6-0.5,0.8-0.8c0.1-0.2,0.2-0.3,0.3-0.6
		c0-0.2-0.1-0.5-0.2-0.6c-0.1-0.1-0.3-0.3-0.6-0.3c-0.2,0-0.4,0.2-0.5,0.3c-0.5,0.6-0.8,1.3-1.2,2c-0.2,0.3-0.3,0.7-0.7,0.9
		c-0.3,0.2-0.8,0.1-1.1,0C176.6,33.4,176.9,32.8,177.4,32.5z M197.4,22.8l1.2-1.7c0.3-0.5,0.7-0.7,1.2-0.7c-0.7,0.9-1.4,1.9-2,2.9
		c-0.7,1.1-1.4,2.2-2.3,3.2C195.9,25.1,196.6,23.9,197.4,22.8z M200.3,19.2L200.3,19.2c0.1-0.4,0.1-0.8,0.3-1.2
		c0.1-0.4,0.4-0.7,0.6-1c0.4-0.4,0.9-0.8,1.4-1.1c-0.2,0.6-0.4,1.1-0.7,1.6C201.6,18.2,201,18.7,200.3,19.2z M205.8,19.8l3.6-0.1
		l0.3,0.4c0,0,0,0,0,0c-1,1.2-1.6,2.6-2.2,4.1c-0.6,1.4-1.2,2.9-2.1,4.1c-0.9,1.3-1.9,2.5-2.8,3.7c-0.5,0.6-0.9,1.3-1.5,1.6
		c-0.5,0.4-1.2,0.4-1.8,0.3l1.3-1.7c0.5-0.6,1-1.4,1.3-2.2c0.1-0.2,0.1-0.4,0.2-0.6c0-0.2,0.1-0.3,0.2-0.6c0.1-0.2,0.2-0.5,0-0.8
		c-0.2-0.3-0.4-0.4-0.6-0.5c-0.4-0.2-1-0.2-1.4,0.1c-0.4,0.3-0.7,0.5-1,0.8c-0.6,0.5-1.3,1.1-1.7,1.9c-0.2,0.4-0.4,0.7-0.5,1.2
		c-0.1,0.4-0.2,0.8-0.4,1.1c-0.4,0.7-1,1.1-1.7,1.3c-0.4,0.1-0.8,0.2-1.1,0.2c-0.2,0-0.4,0-0.6,0l0,0c0-0.9,0.1-1.8,0.6-2.5
		c0.3-0.5,0.7-0.9,1.1-1.3c0.4-0.4,0.8-0.9,1.2-1.4c0.8-0.9,1.4-1.9,2.1-2.9c0.7-1,1.3-2,2-3c0.3-0.5,0.7-1,1.1-1.4
		c0.4-0.5,0.7-0.9,1.2-1.2c0.5-0.3,1.1-0.4,1.7-0.4L205.8,19.8z M199.7,30.4c-0.1,0.2-0.3,0.5-0.5,0.7c-0.2,0.3-0.5,0.5-0.8,0.8
		c0-0.4,0.1-0.7,0.3-1.1c0.1-0.2,0.3-0.4,0.6-0.6c0.2-0.2,0.5-0.3,0.8-0.5C200,29.9,199.9,30.2,199.7,30.4z M193.3,35.7
		c0,0-0.1,0-0.1-0.1c-0.1-0.1-0.1-0.3-0.1-0.5c0,0,0.1,0,0.1,0c0.3,0,0.5,0,0.8,0.1c0.4,0,0.8,0,1.1,0.2c-0.3,0.2-0.8,0.1-1.3,0.2
		C193.6,35.6,193.4,35.7,193.3,35.7z M187.1,29.4l2.8-4.2l1.4-2.1c0.5-0.7,0.9-1.5,1.5-2c0.6-0.5,1.4-0.7,2.2-0.6c0.4,0,0.9,0,1.3,0
		c0.2,0,0.3,0.1,0.4,0.2c0.1,0.1,0,0.2,0,0.3c-1,1.3-1.8,3-2.4,4.5c-0.3,0.8-0.7,1.5-1.1,2.3c-0.2,0.4-0.4,0.8-0.5,1.2
		c-0.1,0.4-0.2,0.9-0.3,1.2c-0.2,0.8-0.7,1.5-1.3,2.1l-0.8,1c-0.3,0.3-0.5,0.7-0.9,0.7c-1.6-0.1-3.4,0.3-5-0.3l0,0l0,0c0,0,0,0,0,0
		c0,0,0,0,0,0C185,32,186.1,30.8,187.1,29.4z M215.3,14.7c0.5-0.6,0.9-1.3,1.1-1.9c0.2-0.4,0.5-0.7,1-0.9c-0.5,1.1-1.1,2.1-1.9,3.1
		c-0.9,1.1-1.9,2.2-2.8,3.3l0,0c0.3-0.7,0.7-1.3,1.1-1.9C214.4,15.8,214.9,15.3,215.3,14.7z M212.8,18.2L212.8,18.2L212.8,18.2
		L212.8,18.2z M211.5,20.2c-0.1,0.2-0.3,0.4-0.4,0.6c-0.1,0.2-0.3,0.3-0.5,0.5c0.1-0.2,0.1-0.4,0.2-0.5c0.1-0.2,0.3-0.4,0.4-0.6
		l0.5-0.6C211.7,19.7,211.6,19.9,211.5,20.2z M209.7,20.1L209.7,20.1C209.7,20.1,209.7,20.1,209.7,20.1L209.7,20.1z M192.6,18.9
		c0,0,0.1-0.1,0.1-0.1C192.6,18.8,192.6,18.9,192.6,18.9z M192.9,18.5c0,0,0-0.1,0.1-0.1C192.9,18.5,192.9,18.5,192.9,18.5z
		 M195.6,13.6c0,0.1,0,0.2,0,0.2C195.5,13.8,195.6,13.7,195.6,13.6z M195.5,14.1c0,0.1-0.1,0.2-0.1,0.3
		C195.4,14.3,195.4,14.2,195.5,14.1z M195.3,14.6c0,0.1-0.1,0.1-0.1,0.2C195.2,14.8,195.3,14.7,195.3,14.6z M195.1,15.1
		c-0.2,0.3-0.3,0.5-0.5,0.8C194.7,15.6,194.9,15.3,195.1,15.1z M192.3,19.1c-0.1,0-0.1,0.1-0.2,0.1
		C192.2,19.2,192.3,19.2,192.3,19.1z M191.8,19.4c-0.1,0-0.1,0.1-0.2,0.1C191.7,19.5,191.8,19.5,191.8,19.4z M191.2,19.4
		c0-0.1,0.1-0.3,0.1-0.4C191.3,19.2,191.2,19.3,191.2,19.4z M174.7,21.8C174.7,21.8,174.7,21.8,174.7,21.8c0,0.1,0,0.1,0,0.1
		l-0.4,0.5l-0.8,0.9l-1.5,1.8c-1,1.2-2.1,2.4-3.2,3.5c-1.1,1.1-2.2,2.3-3.3,3.4c-0.6,0.5-1.2,1.1-1.8,1.6l-0.2,0.2
		c-0.1,0.1-0.2,0.2-0.2,0.2c-0.1,0.1-0.1,0.1-0.2,0.1c-0.1,0-0.1,0.1-0.2,0.1c-0.3,0-0.5-0.1-0.4-0.4c0-0.1,0.2-0.3,0.3-0.5l0.3-0.5
		l0.6-1c0.4-0.7,0.9-1.3,1.2-2c0.8-1.4,1.6-2.7,2.5-4.1l1.2-2c0.4-0.7,0.7-1.5,1.4-1.8c0.3-0.1,0.7-0.1,1.1-0.1c0.4,0.1,0.8,0,1.2,0
		c0.8-0.1,1.6-0.3,2.3-0.5C174.6,21.5,174.7,21.6,174.7,21.8z M165.4,25.9c-0.4,0.6-0.8,1.3-1.3,1.9c-0.2,0.3-0.4,0.7-0.5,1.1
		c-0.1,0.3-0.3,0.7-0.5,1c-0.8,1.3-1.9,2.5-2.6,3.8c-0.3,0.6-1.2,0.4-1.9,0.4l-2,0c0.5-1.1,1.7-1.8,2.5-3c0.8-1.2,1.8-2.2,2.8-3.3
		c1-1.1,1.8-2.3,2.8-3.3c0.5-0.6,0.9-1.2,1.4-1.6c0.5-0.5,1.2-0.7,1.9-0.8C167.1,23.4,166.2,24.7,165.4,25.9z M127.7,26.2
		c12-1.2,24-2.4,36-3.4c-0.3,0.6-0.8,1-1.3,1.5l-1.7,1.9l-3.3,3.8l-1.6,1.9c-0.6,0.6-1.1,1.3-1.7,1.7c-1.3,0.9-3.1,0.6-4.7,0.7
		l-20,0.5l-10,0.2c-3.3,0.1-6.7,0.3-10,0.5l-5,0.3l-2.5,0.2c-0.8,0.1-1.7,0.1-2.5-0.1c-0.8-0.2-1.4-0.8-2.1-1.2l-2.1-1.4l-2.1-1.4
		c-0.5-0.4-1.1-0.6-1.5-1.1c-0.1-0.1-0.2-0.3-0.3-0.6C103.5,28.7,115.6,27.4,127.7,26.2z M48.8,36.1c2.4-0.6,4.7-1.1,7.2-1.4
		l14.5-1.8c4.8-0.6,9.7-1.2,14.5-1.9c1.2-0.2,2.4-0.3,3.6-0.4c0.6,0,1.1,0.1,1.6,0.4c0.5,0.3,0.9,0.8,1.4,1.1
		c0.9,0.8,1.9,1.6,2.9,2.2c0.5,0.3,1.1,0.6,1.6,0.9c0.3,0.1,0.4,0.2,0.6,0.5c0.1,0.1,0.2,0.2,0.3,0.4l-6.5,0.6l-7,0.5
		c-4.7,0.3-9.3,0.7-14,0.7c-2.4,0-4.7,0.6-7,0.6c-2.3,0-4.7,0.1-7,0.2l-7,0.5c-1.2,0.1-2.3,0-3.5-0.1L43.2,39c-0.3,0-0.6,0-0.9-0.1
		c-0.1-0.1-0.2-0.2-0.3-0.3c0,0,0,0,0,0c-0.1-0.1-0.2-0.2-0.2-0.4c0,0.1,0.1,0.2,0.2,0.3c-0.1-0.1-0.1-0.2-0.2-0.3
		C44.2,37.7,46.4,36.7,48.8,36.1z M42.3,38.8c-0.1-0.1-0.2-0.1-0.3-0.2C42.1,38.7,42.2,38.8,42.3,38.8z M42.6,39
		c-0.1,0-0.2,0-0.3-0.1C42.5,38.9,42.5,38.9,42.6,39z M150.9,36.3c0-0.1,0-0.3,0.1-0.4c0.1-0.2,0.2-0.2,0.5-0.2
		c0.2,0.1,0.3,0.1,0.2,0.4c-0.1,0.2-0.3,0.4-0.6,0.6C150.9,36.6,150.9,36.5,150.9,36.3z M169.6,36.1c0.2-0.3,0.4-0.5,0.6-0.7
		c0.3-0.3,0.9-0.2,1.4-0.1c-0.2,0.3-0.6,0.5-1,0.7c-0.3,0.1-0.5,0.3-0.8,0.4c-0.3,0.2-0.5,0.3-0.7,0.5L169.6,36.1z M175,37.2
		L175,37.2L175,37.2L175,37.2z M179.6,35.6c-0.1,0-0.2,0-0.3,0c-0.1,0-0.1,0-0.1,0c-0.1,0-0.1-0.1-0.1-0.1c0-0.3,0.2-0.4,0.5-0.6
		c0.2-0.1,0.3-0.1,0.4-0.1c0.1,0,0.3,0.1,0.4,0.3C180.3,35.5,180,35.6,179.6,35.6z M185.5,36.1c-0.4,0-0.8,0.2-1.2,0.2
		c-0.4,0-0.5-0.1-0.5-0.4c0-0.3,0.2-0.6,0.5-0.6c0,0,0,0,0.1,0l0.2,0c0.1,0,0.2,0,0.3,0c0.2,0,0.4,0,0.6,0c0.8-0.1,1.6-0.1,2.3,0.3
		C187,35.9,186.3,36,185.5,36.1z M197.5,35.8c0,0,0-0.2,0.1-0.3c0.1-0.2,0.3-0.3,0.6-0.3l0.1,0c0,0,0,0,0,0c0,0,0.1,0,0.1,0.1l0,0
		c0,0.1,0,0.1,0,0.1c0,0.1-0.1,0.1-0.2,0.2c-0.1,0.1-0.4,0.1-0.4,0.3C197.7,35.9,197.5,35.9,197.5,35.8z M238.8,19
		c2.1,0,4.1-0.1,6.2,0c1,0,2.1,0.1,3,0.2c0.2,0.1,0.4,0.3,0.6,0.4c0.1,0.1,0.2,0.2,0.2,0.3c0,0.1,0,0.2,0,0.3
		c-0.1,0.2-0.2,0.3-0.5,0.5c-0.2,0.2-0.4,0.3-0.6,0.5c-0.4,0.4-0.7,0.7-1.1,1c-0.4,0.3-0.9,0.4-1.4,0.6c-1,0.3-2,0.6-2.9,1
		c-1.9,0.7-3.8,1.5-5.7,2.3c-1.9,0.8-3.7,1.7-5.6,2.6l-5.5,2.7c-3.6,1.9-7.7,2.9-11.8,2.8c-1,0-2-0.1-3.1-0.3
		c-0.5-0.1-1.1-0.1-1.6,0c-0.3,0-0.5,0.1-0.8,0.2c-0.3,0.1-0.5,0.2-0.7,0.2c-0.5,0.1-0.9-0.2-1.1-0.6c-0.2-0.4-0.2-0.9-0.2-1.5
		c0-1,0.2-2,0.7-2.9c1-1.8,2.1-3.5,3.4-5.1c0.6-0.8,1.2-1.6,1.9-2.4l1-1.2c0.3-0.4,0.6-0.8,1.1-1c0.5-0.2,1-0.2,1.5-0.2l1.5,0
		c1,0,2.1-0.1,3.1-0.1c1.5-0.1,3.1-0.1,4.6-0.2c0.3,0,0.6,0,0.9,0c0.2,0,0.4,0,0.6,0L238.8,19z M194.6,13.9c0.1-0.1,0.2-0.1,0.2-0.2
		C194.8,13.8,194.7,13.8,194.6,13.9z M194.1,14.3c0,0,0.1-0.1,0.1-0.1C194.2,14.2,194.1,14.2,194.1,14.3z M193.4,16.1
		c0,0,0.1-0.1,0.1-0.1C193.5,16,193.5,16,193.4,16.1z M191.8,18.2c0.1-0.1,0.1-0.2,0.2-0.2C191.9,18,191.8,18.1,191.8,18.2z
		 M191.4,18.7c0.1-0.1,0.1-0.2,0.2-0.4C191.6,18.5,191.5,18.6,191.4,18.7z M190.4,21c-0.1,0.9-0.6,1.8-1,2.6c-0.3,0.5-0.6,1-1,1.5
		c-0.4,0.5-0.7,1-1.1,1.4C188.1,24.5,189,22.5,190.4,21z M87.4,29.3c-0.5,0-1.1,0.1-1.6,0.1c0.7-0.1,1.3-0.2,2-0.3
		C87.7,29.2,87.5,29.3,87.4,29.3z M232.6,17.8l4.9-0.1c-2.4,0.1-4.8,0.1-7.1,0.1L232.6,17.8z M202.9,14.2
		C202.9,14.2,202.9,14.2,202.9,14.2C202.9,14.2,202.9,14.2,202.9,14.2z M201.9,14.9c0.1,0,0.1-0.1,0.2-0.1c-0.1,0.1-0.2,0.2-0.3,0.3
		C201.8,15,201.8,15,201.9,14.9z M201,15.7c-0.1,0.1-0.2,0.2-0.3,0.3C200.8,15.9,200.9,15.8,201,15.7z M200.1,16.7
		C200.1,16.7,200.1,16.7,200.1,16.7c-0.1,0.1-0.1,0.2-0.2,0.3C200,16.9,200.1,16.8,200.1,16.7z M197.2,13.3c0.1-0.3,0.3-0.6,0.4-0.9
		C197.4,12.7,197.3,13,197.2,13.3z M197.9,11.8c0-0.1,0.1-0.2,0.1-0.3c0-0.1,0.1-0.2,0.1-0.2C198.1,11.5,198,11.7,197.9,11.8z
		 M198.2,10.6C198.2,10.6,198.2,10.6,198.2,10.6C198.2,10.6,198.2,10.6,198.2,10.6z M198.1,10.5c0,0-0.1-0.1-0.1-0.1
		C198,10.4,198.1,10.5,198.1,10.5z M197.8,10.3C197.8,10.3,197.8,10.3,197.8,10.3C197.8,10.3,197.8,10.3,197.8,10.3
		C197.8,10.3,197.8,10.3,197.8,10.3z M197.6,10.3C197.5,10.3,197.5,10.3,197.6,10.3C197.5,10.3,197.5,10.3,197.6,10.3z M197.3,10.3
		C197.3,10.3,197.3,10.3,197.3,10.3C197.3,10.3,197.3,10.3,197.3,10.3C197.3,10.3,197.3,10.3,197.3,10.3z M196.2,11.3
		c0.2-0.2,0.4-0.3,0.5-0.5C196.6,11,196.4,11.1,196.2,11.3z M195.4,12C195.4,12,195.3,12,195.4,12C195.3,12,195.4,12,195.4,12z
		 M194.5,12.8c-0.1,0.1-0.2,0.2-0.3,0.4C194.3,13.1,194.4,13,194.5,12.8z M194,13.4c-0.1,0.1-0.1,0.2-0.2,0.3
		C193.9,13.6,194,13.5,194,13.4z M193.8,14c-0.1,0.2-0.1,0.3-0.2,0.5l0,0C193.6,14.3,193.7,14.1,193.8,14z M193.1,14.4
		C193.1,14.4,193.1,14.4,193.1,14.4C193.1,14.4,193.1,14.4,193.1,14.4C193.1,14.4,193.1,14.4,193.1,14.4z M193,14.4
		C193,14.4,193,14.4,193,14.4C193,14.4,193,14.4,193,14.4z M192.7,15c-0.1,0.2-0.2,0.3-0.3,0.5C192.5,15.3,192.6,15.1,192.7,15z
		 M189.5,19.2C189.5,19.3,189.5,19.3,189.5,19.2C189.5,19.3,189.5,19.3,189.5,19.2z M189,19.6C189,19.6,189.1,19.6,189,19.6
		C189.1,19.6,189,19.6,189,19.6z M188.6,19.7C188.5,19.7,188.5,19.7,188.6,19.7C188.5,19.7,188.5,19.7,188.6,19.7z M115.6,50.6
		C115.6,50.6,115.6,50.6,115.6,50.6C115.6,50.6,115.6,50.6,115.6,50.6z M115.3,50.5C115.2,50.5,115.2,50.4,115.3,50.5
		C115.2,50.4,115.2,50.5,115.3,50.5z"/>
	<path d="M252.4,42.9L252.4,42.9l-0.2-0.1c-2.4,0.1-4.6,0.8-6.9,0.2c-0.6-0.1-1.3,0.1-1.8,0.4c-0.5,0.2-1,0.1-1.6,0.1
		c-1.2-0.1-2.3-0.1-3.5-0.1L224.5,44l-13.9,0.5l-3.5,0.1l-3.5,0l-7,0.4l-27.8,1.5c-4.6,0.3-9.3,0.5-13.9,0.9l-2.7,0.2
		c-0.5,0-1,0.1-1.5,0.1l-2.7,0.2l-3.5,0.2l-1.7,0.1c-0.2,0-0.4,0-0.6,0c0,0-0.1,0-0.1,0c0,0-0.1,0-0.1,0c-0.1,0-0.1,0-0.2,0
		c0,0,0,0,0,0c-0.1,0-0.2,0.1-0.2,0.2c0,0,0,0,0,0c-0.1,0.1-0.1,0.2-0.2,0.3c0,0,0,0,0,0l0,0l0,0c0,0,0,0,0,0
		c-0.4-0.3-0.9-0.5-1.4-0.4c-0.5,0-1,0.1-1.6,0.2c-1,0.1-2.1,0.3-3.1,0.3c-1,0.1-2.1,0-3.1,0.1c-1,0-2.1,0.1-3.1,0.2
		c-2.1,0.1-4.1,0.4-6.2,0.6c-1,0.1-2.1,0.2-3.1,0.2l-1.5,0.1c-0.3,0-0.5,0-0.8,0c-0.2,0-0.4,0.1-0.5,0.2c-0.1,0.2-0.2,0.3-0.2,0.5
		l0,0.1l0.1,0.1c0.5,0.4,1.2,0.3,1.7,0.3l1.5-0.1l3.1-0.3c2.1-0.2,4.1-0.4,6.1-0.6l6.2-0.4l3.1-0.3c1-0.1,2.1-0.1,2.9-0.8
		c0,0,0,0,0,0c0,0,0,0,0,0h0c0,0,0,0,0,0c0,0,0,0,0,0c0,0,0,0,0,0l0,0l0,0c0,0,0,0,0,0c0.2,0.1,0.4,0.2,0.5,0.3c0,0,0.1,0,0.1,0.1
		c0,0,0,0,0.1,0c0,0,0.1,0,0.1,0c0.1,0,0.1,0,0.2,0c0.1,0,0.2,0,0.3,0c0,0,0,0,0,0c0,0,0.1,0,0.1,0c0,0,0.1,0,0.1,0
		c0.6-0.1,1.1-0.2,1.7-0.3c1.2-0.1,2.3-0.1,3.5-0.1c1.2,0,2.3-0.2,3.5-0.3c1.2-0.1,2.3-0.1,3.5-0.1c1.2,0,2.3-0.1,3.5-0.3
		c1.2-0.1,2.3-0.2,3.5-0.2c2.3-0.1,4.7-0.2,7-0.3c1.2-0.1,2.3,0,3.5-0.1c1.2-0.1,2.3-0.3,3.5-0.4c2.3-0.2,4.6-0.2,7-0.2l14-0.6
		c4.7-0.2,9.3-0.4,14-0.6l14-0.4c2.3-0.1,4.7-0.1,7-0.3c1.2-0.1,2.3-0.2,3.5-0.1c0.6,0,1.1,0.1,1.7,0.1c0.6,0,1.2,0,1.8,0
		c2.4-0.1,4.7-0.5,7-0.6c0.6,0,1.2,0,1.7,0c0.5,0.1,1.2,0.1,1.8,0c0.6-0.1,1.2-0.2,1.7-0.4l0.8-0.2c0.1,0,0.4,0,0.5-0.3
		c0.1-0.1,0.1-0.3,0.1-0.4C252.6,43.1,252.5,43,252.4,42.9z M142,48.4C142,48.4,142,48.4,142,48.4C142,48.4,141.9,48.4,142,48.4
		C141.9,48.4,141.9,48.4,142,48.4z M141.8,48.4c-0.1,0-0.2,0.1-0.2,0.1C141.6,48.5,141.7,48.4,141.8,48.4z M141.5,48.6
		c-0.1,0.1-0.1,0.2-0.1,0.3c0,0,0,0,0,0C141.4,48.8,141.4,48.7,141.5,48.6z M141,48.7c0.1,0.1,0.2,0.1,0.3,0.2l0,0
		C141.2,48.8,141.1,48.7,141,48.7z M142.1,49.2C142.1,49.2,142.1,49.2,142.1,49.2C142.1,49.2,142.1,49.2,142.1,49.2
		C142.1,49.2,142.1,49.2,142.1,49.2z M142.5,49.3c0,0,0.1,0,0.1,0C142.6,49.3,142.5,49.3,142.5,49.3z"/>
	<path d="M321.7,32.9c-0.2,0-0.4,0-0.5,0c-0.1,0-0.4-0.1-0.6,0c-0.1,0-0.2,0.1-0.3,0.3c-0.1,0.1,0,0.3,0,0.4c0,0.2,0.3,0.5,0.5,0.5
		c0.2,0,0.4,0,0.6,0c0.2,0,0.4-0.1,0.5-0.2c0.2-0.1,0.2-0.3,0.2-0.5C322.1,33.2,322,33,321.7,32.9z"/>
</g>
</svg>
